<?xml version="1.0" encoding="UTF-8"?>
<svg version="1.1" xmlns="http://www.w3.org/2000/svg" width="484" height="284">
<path d="M0 0 C159.72 0 319.44 0 484 0 C484 93.72 484 187.44 484 284 C324.28 284 164.56 284 0 284 C0 190.28 0 96.56 0 0 Z " fill="#FDFDFD" transform="translate(0,0)"/>
<path d="M0 0 C13.28187409 -0.02312079 26.56374343 -0.04091374 39.84563351 -0.05181217 C46.0122492 -0.05704158 52.17885118 -0.06414027 58.34545898 -0.07543945 C64.29116006 -0.08626629 70.23684789 -0.0922764 76.18255806 -0.09487724 C78.45646943 -0.09673186 80.73038004 -0.10035317 83.00428581 -0.10573006 C86.1772712 -0.11293778 89.35020117 -0.11399106 92.52319336 -0.11352539 C93.47337341 -0.11712067 94.42355347 -0.12071594 95.40252686 -0.12442017 C101.88594784 -0.11405216 101.88594784 -0.11405216 103 1 C103.47929222 8.42902948 103.47929222 8.42902948 101.76831055 10.46728516 C99.75136581 12.21550814 97.75882394 13.3217798 95.37890625 14.53125 C94.45247314 15.00731689 93.52604004 15.48338379 92.5715332 15.97387695 C91.57855225 16.47749756 90.58557129 16.98111816 89.5625 17.5 C83.37800716 20.66492168 77.21547598 23.8413079 71.171875 27.26953125 C70.26751709 27.78128906 69.36315918 28.29304688 68.43139648 28.8203125 C66.71428578 29.79868302 65.00260596 30.78666101 63.29711914 31.78515625 C62.52489014 32.2234375 61.75266113 32.66171875 60.95703125 33.11328125 C60.28647705 33.50298096 59.61592285 33.89268066 58.92504883 34.29418945 C56.49692048 35.18445186 55.374089 34.97565721 53 34 C50.75 31.4375 50.75 31.4375 49 29 C45.67957732 30.27443913 42.55840492 31.69474554 39.4375 33.3984375 C38.56770508 33.87249023 37.69791016 34.34654297 36.80175781 34.83496094 C35.87717773 35.34317383 34.95259766 35.85138672 34 36.375 C33.0419043 36.89868164 32.08380859 37.42236328 31.09667969 37.96191406 C23.17561332 42.30956703 15.32835909 46.78185576 7.52734375 51.34130859 C6.69847656 51.82164551 5.86960938 52.30198242 5.015625 52.796875 C4.28633789 53.22323242 3.55705078 53.64958984 2.80566406 54.08886719 C1 55 1 55 -1 55 C-1.0252899 47.48861406 -1.04284141 39.97723903 -1.05493164 32.46582031 C-1.05997017 29.90884999 -1.06680107 27.35188257 -1.07543945 24.79492188 C-1.08752602 21.12629483 -1.09323301 17.45770577 -1.09765625 13.7890625 C-1.10539818 12.0655809 -1.10539818 12.0655809 -1.11329651 10.30728149 C-1.11337204 9.2463327 -1.11344757 8.18538391 -1.11352539 7.09228516 C-1.115746 6.15518707 -1.11796661 5.21808899 -1.12025452 4.25259399 C-1 2 -1 2 0 0 Z " fill="#ACCFF3" transform="translate(165,37)"/>
<path d="M0 0 C0.10854617 2.39706123 0.18753157 4.78915838 0.25 7.1875 C0.28351563 7.86103516 0.31703125 8.53457031 0.3515625 9.22851562 C0.41634647 12.54869399 0.21839517 14.65420481 -1.56860352 17.48364258 C-4.47074585 20.48719524 -7.59299987 22.21488906 -11.29296875 24.03125 C-11.99843338 24.38964966 -12.70389801 24.74804932 -13.43074036 25.11730957 C-15.6775724 26.25601654 -17.93206768 27.37843963 -20.1875 28.5 C-22.41836571 29.62256061 -24.64753406 30.74842471 -26.87625122 31.87524414 C-28.30986946 32.59876713 -29.74497252 33.3193562 -31.18161011 34.03686523 C-35.64963891 36.27613661 -39.99260937 38.64855248 -44.23168945 41.30273438 C-46.55197249 42.21764924 -47.70941658 41.91230308 -50 41 C-51.75 38.9375 -51.75 38.9375 -53 37 C-57.44232037 37.53885893 -60.61822141 38.62303121 -64.4921875 40.84375 C-65.51997314 41.42688965 -66.54775879 42.0100293 -67.60668945 42.61083984 C-68.68523193 43.2342627 -69.76377441 43.85768555 -70.875 44.5 C-72.53825317 45.44480225 -72.53825317 45.44480225 -74.23510742 46.40869141 C-79.18992884 49.22552519 -84.12706948 52.0723191 -89.05859375 54.9296875 C-89.78900879 55.34927734 -90.51942383 55.76886719 -91.27197266 56.20117188 C-92.59541521 56.96249178 -93.91442829 57.73158459 -95.22802734 58.50976562 C-98.53875139 60.41630186 -100.0558014 61 -104 61 C-104.13526616 58.4149133 -104.23417653 55.83691248 -104.3125 53.25 C-104.35439453 52.52039063 -104.39628906 51.79078125 -104.43945312 51.0390625 C-104.51777908 47.59272052 -104.45590901 45.53417665 -102.1796875 42.8671875 C-97.44779321 40.08850756 -92.66050667 37.44557979 -87.8125 34.875 C-85.66232401 33.72347076 -83.51258903 32.57111769 -81.36328125 31.41796875 C-80.2954541 30.8461084 -79.22762695 30.27424805 -78.12744141 29.68505859 C-73.56272524 27.2255995 -69.0282871 24.71325629 -64.5 22.1875 C-63.35301636 21.54820557 -63.35301636 21.54820557 -62.18286133 20.89599609 C-60.45460973 19.93179449 -58.72719409 18.96609467 -57 18 C-55.2925002 19.28062485 -53.62626404 20.61767557 -52 22 C-52 22.66 -52 23.32 -52 24 C-43.6782853 21.59013251 -36.25407761 17.70973225 -28.625 13.6875 C-27.36228377 13.0287127 -26.09926439 12.37050613 -24.8359375 11.71289062 C-18.22437372 8.261991 -11.66328791 4.7396298 -5.18505859 1.04223633 C-3 0 -3 0 0 0 Z " fill="#32609D" transform="translate(268,80)"/>
<path d="M0 0 C0.1081866 2.58445773 0.18737237 5.16437352 0.25 7.75 C0.28351563 8.47960938 0.31703125 9.20921875 0.3515625 9.9609375 C0.45066309 15.41146983 0.45066309 15.41146983 -1.50512695 17.96557617 C-4.85563931 20.69772408 -8.45114527 22.51744373 -12.30859375 24.44140625 C-13.11232925 24.85035629 -13.91606476 25.25930634 -14.74415588 25.6806488 C-17.30495647 26.98194861 -19.87094162 28.27259914 -22.4375 29.5625 C-24.99939786 30.85802022 -27.56016545 32.15573165 -30.12013245 33.45506287 C-31.71036191 34.26133758 -33.30188832 35.06506092 -34.8948822 35.86585999 C-37.96798102 37.41726725 -40.95691774 38.97360998 -43.89477539 40.77319336 C-46 42 -46 42 -48.125 41.9375 C-50.52296787 40.73851606 -51.56229665 39.2284402 -53 37 C-57.82080705 37.54324696 -61.21962674 38.9494416 -65.4375 41.31640625 C-66.03949219 41.65115463 -66.64148438 41.98590302 -67.26171875 42.33079529 C-69.17924371 43.3997616 -71.08958016 44.48089729 -73 45.5625 C-74.25085426 46.26186926 -75.5021535 46.96044327 -76.75390625 47.65820312 C-81.85268055 50.50733751 -86.9377987 53.37798505 -91.98828125 56.31201172 C-92.63023437 56.68357895 -93.2721875 57.05514618 -93.93359375 57.43797302 C-95.16109585 58.14966625 -96.3864627 58.86505861 -97.609375 59.58460999 C-101.77760558 62 -101.77760558 62 -104 62 C-104.19043729 59.45479053 -104.32813248 56.92393276 -104.4375 54.375 C-104.49615234 53.66214844 -104.55480469 52.94929688 -104.61523438 52.21484375 C-104.71431501 49.12918963 -104.65924458 46.91085016 -102.81274414 44.35961914 C-97.80847426 39.77631833 -91.53233513 36.80508057 -85.5625 33.6875 C-83.42515246 32.55326743 -81.28843553 31.41784576 -79.15234375 30.28125 C-77.58782471 29.45173828 -77.58782471 29.45173828 -75.99169922 28.60546875 C-71.15673328 26.01082733 -66.39276616 23.29323475 -61.64672852 20.53979492 C-57.21188832 18 -57.21188832 18 -55 18 C-53.61767557 19.62626404 -52.28062485 21.2925002 -51 23 C-45.93597698 22.45507187 -41.95618874 20.71368264 -37.51171875 18.359375 C-36.45776665 17.81328583 -36.45776665 17.81328583 -35.38252258 17.25616455 C-33.14673341 16.09515448 -30.91719643 14.92266052 -28.6875 13.75 C-27.20155251 12.97713232 -25.71522748 12.20499005 -24.22851562 11.43359375 C-17.63877448 8.00495559 -11.06806298 4.57423343 -4.67504883 0.78613281 C-3 0 -3 0 0 0 Z " fill="#32609E" transform="translate(268,55)"/>
<path d="M0 0 C0.02465098 4.96622349 0.04283649 9.93241166 0.05493164 14.89868164 C0.0599719 16.58944316 0.06680405 18.28020029 0.07543945 19.97094727 C0.08751857 22.39600707 0.09323123 24.82100944 0.09765625 27.24609375 C0.10281754 28.00651474 0.10797882 28.76693573 0.11329651 29.55039978 C0.11349238 31.3673257 0.06197277 33.18413127 0 35 C-1.79988399 36.79988399 -4.24999876 36.11993004 -6.64555359 36.12442017 C-7.45547256 36.12082489 -8.26539154 36.11722961 -9.09985352 36.11352539 C-9.94856018 36.11367142 -10.79726685 36.11381744 -11.67169189 36.1139679 C-14.49078891 36.11326848 -17.30982071 36.10547478 -20.12890625 36.09765625 C-22.07803817 36.09579217 -24.02717055 36.09436822 -25.9763031 36.09336853 C-31.11706832 36.08954255 -36.25780547 36.07971159 -41.39855957 36.06866455 C-46.64005148 36.05845215 -51.8815479 36.05387128 -57.12304688 36.04882812 C-67.41537694 36.03808939 -77.70768614 36.02101201 -88 36 C-84.43265335 33.08850731 -80.95336865 30.73242678 -76.89453125 28.546875 C-75.74662109 27.928125 -74.59871094 27.309375 -73.41601562 26.671875 C-72.82473877 26.35669922 -72.23346191 26.04152344 -71.62426758 25.71679688 C-69.80361265 24.74525752 -67.98853811 23.76384071 -66.17382812 22.78125 C-57.25920759 18 -57.25920759 18 -55 18 C-53.61767557 19.62626404 -52.28062485 21.2925002 -51 23 C-45.93597698 22.45507187 -41.95618874 20.71368264 -37.51171875 18.359375 C-36.45776665 17.81328583 -36.45776665 17.81328583 -35.38252258 17.25616455 C-33.14673341 16.09515448 -30.91719643 14.92266052 -28.6875 13.75 C-27.20155251 12.97713232 -25.71522748 12.20499005 -24.22851562 11.43359375 C-17.63877448 8.00495559 -11.06806298 4.57423343 -4.67504883 0.78613281 C-3 0 -3 0 0 0 Z " fill="#315F9D" transform="translate(268,105)"/>
<path d="M0 0 C6.435 -0.1546875 6.435 -0.1546875 13 -0.3125 C14.33675781 -0.35802002 15.67351562 -0.40354004 17.05078125 -0.45043945 C24.24536972 -0.5339096 29.58682435 -0.06779397 35 5 C37.42874225 8.84550855 37.53036429 12.52978672 37 17 C34.74088167 22.06901345 32.20122441 25.76210476 27 28 C23.55058277 28.3528948 20.15006992 28.28220038 16.6875 28.1875 C11.8921875 28.0946875 11.8921875 28.0946875 7 28 C7 34.93 7 41.86 7 49 C4.69 49 2.38 49 0 49 C0 32.83 0 16.66 0 0 Z " fill="#383838" transform="translate(173,154)"/>
<path d="M0 0 C3.3 0 6.6 0 10 0 C14.62 13.2 19.24 26.4 24 40 C28.23654559 27.21116435 28.23654559 27.21116435 32.46655273 14.42016602 C32.99699509 12.82300037 33.52765999 11.22590861 34.05859375 9.62890625 C34.33417114 8.79194214 34.60974854 7.95497803 34.89367676 7.09265137 C36.8859282 1.1140718 36.8859282 1.1140718 38 0 C40.97 0 43.94 0 47 0 C47 16.17 47 32.34 47 49 C45.02 49 43.04 49 41 49 C40.67 36.46 40.34 23.92 40 11 C38.411875 15.599375 36.82375 20.19875 35.1875 24.9375 C34.6927417 26.36956787 34.1979834 27.80163574 33.68823242 29.27709961 C31.42364393 35.84014898 29.17812673 42.40772939 27 49 C24.69 49 22.38 49 20 49 C15.66666667 36 11.33333333 23 7 10 C6.67 22.87 6.34 35.74 6 49 C4.02 49 2.04 49 0 49 C0 32.83 0 16.66 0 0 Z " fill="#363636" transform="translate(62,154)"/>
<path d="M0 0 C4.90425917 3.33573279 7.68435519 7.22002503 8.89453125 13.05859375 C9.55364281 20.62570152 8.92547758 26.32042661 4.01953125 32.37109375 C-1.2096565 36.52368402 -6.63118449 36.74234654 -13.10546875 36.05859375 C-18.18879022 33.95896097 -21.06288768 30.30014306 -23.35546875 25.37109375 C-24.95579992 18.3029644 -24.96117601 12.14773415 -21.31640625 5.75 C-16.51398456 -0.95789868 -7.60903072 -3.40218257 0 0 Z " fill="#3D3D3D" transform="translate(361.10546875,166.94140625)"/>
<path d="M0 0 C1.98 0 3.96 0 6 0 C6 5.61 6 11.22 6 17 C7.485 15.7625 7.485 15.7625 9 14.5 C13.25913394 11.47988684 15.84069904 11.26295701 21 12 C24.75212276 14.01502889 26.63644095 15.45466142 29 19 C29.22705078 22.09448242 29.22705078 22.09448242 29.1953125 25.85546875 C29.1924826 26.51710526 29.18965271 27.17874176 29.18673706 27.86042786 C29.17555918 29.96963737 29.15045981 32.07841925 29.125 34.1875 C29.11496707 35.61913448 29.10584176 37.05077564 29.09765625 38.48242188 C29.07562795 41.98841977 29.04111485 45.49416813 29 49 C27.33388095 49.042721 25.66617115 49.04063832 24 49 C22.20547687 47.20547687 22.78477739 44.49273715 22.71875 42.06640625 C22.68136719 40.86048828 22.64398438 39.65457031 22.60546875 38.41210938 C22.57066406 37.14173828 22.53585938 35.87136719 22.5 34.5625 C22.43133019 32.06368176 22.35862144 29.56497019 22.28125 27.06640625 C22.25095703 25.95209229 22.22066406 24.83777832 22.18945312 23.68969727 C22.17478961 21.03019286 22.17478961 21.03019286 21 19 C17.82582838 18.13431683 15.54295417 17.88635843 12.3125 18.5625 C9.00254499 20.6200396 8.40430632 22.33232847 7 26 C6.50344604 29.95382461 6.39830674 33.89356726 6.3125 37.875 C6.27833984 38.94492188 6.24417969 40.01484375 6.20898438 41.1171875 C6.12687502 43.74468689 6.05760376 46.37186816 6 49 C4.02 49 2.04 49 0 49 C0 32.83 0 16.66 0 0 Z " fill="#393939" transform="translate(217,154)"/>
<path d="M0 0 C2.31 0 4.62 0 7 0 C9.97 9.24 12.94 18.48 16 28 C18.92014777 19.16038212 18.92014777 19.16038212 21.83374023 10.31860352 C22.19669189 9.22475342 22.55964355 8.13090332 22.93359375 7.00390625 C23.30540771 5.87799072 23.67722168 4.7520752 24.06030273 3.59204102 C25 1 25 1 26 0 C27.99958364 -0.04080783 30.00045254 -0.04254356 32 0 C30.83875732 5.90184516 29.26263931 11.42002497 27 17 C26.02014176 19.43722486 25.04100804 21.87473339 24.0625 24.3125 C23.80291504 24.95727295 23.54333008 25.6020459 23.27587891 26.26635742 C21.0571358 31.799322 18.98652061 37.37931522 17 43 C16.34 43 15.68 43 15 43 C14.938125 43.598125 14.87625 44.19625 14.8125 44.8125 C14 47 14 47 11.8125 48.75 C8.64389285 50.15826984 6.42985545 50.23929224 3 50 C3 48.02 3 46.04 3 44 C3.928125 44 4.85625 44 5.8125 44 C8.99058704 43.368609 8.99058704 43.368609 10.04951477 41.43112183 C12.2024916 36.0233013 11.89171223 32.4644504 9.66796875 27.0703125 C9.39737137 26.35390594 9.12677399 25.63749939 8.84797668 24.89938354 C7.98547133 22.63098873 7.08791891 20.37857858 6.1875 18.125 C5.3060368 15.8474663 4.43186142 13.56724907 3.55915833 11.28634644 C3.01510717 9.87250866 2.46443491 8.46119739 1.90653992 7.05276489 C0 2.21103312 0 2.21103312 0 0 Z " fill="#3E3E3E" transform="translate(115,167)"/>
<path d="M0 0 C2.31 0 4.62 0 7 0 C9.97 9.24 12.94 18.48 16 28 C18.92014777 19.16038212 18.92014777 19.16038212 21.83374023 10.31860352 C22.19669189 9.22475342 22.55964355 8.13090332 22.93359375 7.00390625 C23.30540771 5.87799072 23.67722168 4.7520752 24.06030273 3.59204102 C25 1 25 1 26 0 C27.99958364 -0.04080783 30.00045254 -0.04254356 32 0 C31.50294918 4.0758167 30.43939922 7.37096498 28.79125977 11.11547852 C27.54711653 14.07862002 26.60231949 17.12763729 25.625 20.1875 C17.41290341 45.27620391 17.41290341 45.27620391 11.05078125 49.203125 C8.31245439 50.26716058 5.90842274 50.13220103 3 50 C3 48.02 3 46.04 3 44 C3.94875 43.9175 4.8975 43.835 5.875 43.75 C9.05516527 43.36193891 9.05516527 43.36193891 10.19897461 41.19360352 C13.16134966 33.08115616 7.76149065 23.09282012 4.9375 15.5625 C4.00456193 13.0446112 3.07802486 10.52448381 2.15234375 8.00390625 C1.73976318 6.89861572 1.32718262 5.7933252 0.90209961 4.65454102 C0 2 0 2 0 0 Z " fill="#3E3E3E" transform="translate(252,167)"/>
<path d="M0 0 C3.58004944 1.39224145 6.70096143 2.85394722 9 6 C9.6875 8.6875 9.6875 8.6875 10 11 C8.02 11 6.04 11 4 11 C3.71125 10.360625 3.4225 9.72125 3.125 9.0625 C2.17176549 6.84793921 2.17176549 6.84793921 0 6 C-5.88165736 5.53411718 -5.88165736 5.53411718 -11 8 C-10.67 9.65 -10.34 11.3 -10 13 C-8.46279297 13.34611328 -8.46279297 13.34611328 -6.89453125 13.69921875 C-5.53362854 14.02771251 -4.17296353 14.35719211 -2.8125 14.6875 C-2.13896484 14.83638672 -1.46542969 14.98527344 -0.77148438 15.13867188 C4.07182953 16.34359387 6.76200501 18.0161747 10 22 C11.1875 25.375 11.1875 25.375 11 29 C8.67128831 32.87350063 6.32011145 35.55996285 2 37 C-10.31279953 38.31447454 -10.31279953 38.31447454 -15.25 34.375 C-18.01856597 31.50389455 -18.90369998 29.04460104 -19 25 C-17.02 25 -15.04 25 -13 25 C-12.7525 25.78375 -12.505 26.5675 -12.25 27.375 C-10.78072868 30.46046977 -10.15157754 30.87752033 -7 32 C-4.17037305 32.02751543 -4.17037305 32.02751543 -1.25 31.625 C-0.26515625 31.51414063 0.7196875 31.40328125 1.734375 31.2890625 C2.48203125 31.19367188 3.2296875 31.09828125 4 31 C4.2502157 28.08365871 4.2502157 28.08365871 4 25 C0.70834922 22.80556615 -1.51795119 22.40683519 -5.375 21.6875 C-10.59567793 20.52476549 -13.9505284 19.68311711 -17 15 C-18.1721243 11.48362709 -18.33052672 9.81659542 -16.9375 6.375 C-12.12293118 0.47327048 -7.34455167 -1.10563143 0 0 Z " fill="#3C3C3C" transform="translate(306,166)"/>
<path d="M0 0 C3.86923155 3.36012214 4.751024 6.71484589 5.10546875 11.65234375 C4.90215905 16.1778671 3.47061882 20.13807617 0.6640625 23.69140625 C-2.03362017 25.81282338 -4.44674781 25.59878347 -7.7734375 25.46875 C-10.75227102 24.84162715 -12.42536655 23.41048338 -14.125 20.90234375 C-16.4773536 15.78807499 -16.57776968 10.91386546 -14.75 5.625 C-13.6173957 2.81660363 -12.31899454 0.96310924 -10 -1 C-5.94398689 -2.35200437 -3.9503364 -1.52469124 0 0 Z " fill="#FCFCFC" transform="translate(359,173)"/>
<path d="M0 0 C2.89740622 -0.13539281 5.78845621 -0.23426829 8.6875 -0.3125 C9.50412109 -0.35439453 10.32074219 -0.39628906 11.16210938 -0.43945312 C15.54829133 -0.52824223 17.41786911 -0.43342223 21.04296875 2.265625 C23.99271771 6.38703073 23.78867962 8.03131838 23 13 C20.85537063 15.44427819 19.17397623 16.82387624 15.90234375 17.31469727 C13.48494035 17.39353666 11.10401971 17.34917839 8.6875 17.25 C7.85154297 17.23195312 7.01558594 17.21390625 6.15429688 17.1953125 C4.10236772 17.14841126 2.05103244 17.07667411 0 17 C0 11.39 0 5.78 0 0 Z " fill="#FBFBFB" transform="translate(180,159)"/>
<path d="M0 0 C1.98 0 3.96 0 6 0 C6 11.88 6 23.76 6 36 C4.02 36 2.04 36 0 36 C0 24.12 0 12.24 0 0 Z " fill="#343434" transform="translate(324,167)"/>
<path d="M0 0 C7 0 7 0 8.9375 1.0625 C10.61903731 4.12883274 10.36051184 6.57513751 10 10 C8.9375 12.4375 8.9375 12.4375 7 14 C4.69 14 2.38 14 0 14 C0 9.38 0 4.76 0 0 Z " fill="#6E6E6E" transform="translate(237,227)"/>
<path d="M0 0 C2.31 0 4.62 0 7 0 C7.66 0.66 8.32 1.32 9 2 C8.625 4.4375 8.625 4.4375 8 7 C8 9.62113708 8.31292445 11.50935112 9 14 C8.34 14 7.68 14 7 14 C5.98133771 12.34467377 4.98189187 10.67739862 4 9 C3.34 8.67 2.68 8.34 2 8 C2 9.98 2 11.96 2 14 C1.34 14 0.68 14 0 14 C0 9.38 0 4.76 0 0 Z " fill="#585858" transform="translate(195,227)"/>
<path d="M0 0 C0.66 0 1.32 0 2 0 C3.65 2.97 5.3 5.94 7 9 C7.33 6.03 7.66 3.06 8 0 C8.66 0 9.32 0 10 0 C10 4.62 10 9.24 10 14 C5.82200357 11.91100178 5.07608099 10.94455388 3 7 C2.67 9.31 2.34 11.62 2 14 C1.34 14 0.68 14 0 14 C0 9.38 0 4.76 0 0 Z " fill="#5A5A5A" transform="translate(224,227)"/>
<path d="M0 0 C2.64 0 5.28 0 8 0 C8 0.66 8 1.32 8 2 C6.02 2 4.04 2 2 2 C2 3.32 2 4.64 2 6 C3.65 6 5.3 6 7 6 C6.67 6.66 6.34 7.32 6 8 C4.68 8 3.36 8 2 8 C2 9.32 2 10.64 2 12 C3.98 12 5.96 12 8 12 C8 12.66 8 13.32 8 14 C5.36 14 2.72 14 0 14 C0 9.38 0 4.76 0 0 Z " fill="#616161" transform="translate(213,227)"/>
<path d="M0 0 C2.64 0 5.28 0 8 0 C8.33 0.66 8.66 1.32 9 2 C6.69 2 4.38 2 2 2 C2 3.32 2 4.64 2 6 C3.65 6 5.3 6 7 6 C7.33 6.66 7.66 7.32 8 8 C6.02 8 4.04 8 2 8 C2 9.98 2 11.96 2 14 C1.34 14 0.68 14 0 14 C0 9.38 0 4.76 0 0 Z " fill="#686868" transform="translate(184,227)"/>
<path d="M0 0 C2.475 0.495 2.475 0.495 5 1 C5.125 7.75 5.125 7.75 4 10 C2.68 10 1.36 10 0 10 C0 6.7 0 3.4 0 0 Z " fill="#FCFCFC" transform="translate(240,229)"/>
<path d="M0 0 C1.98 0 3.96 0 6 0 C6 1.98 6 3.96 6 6 C4.02 6 2.04 6 0 6 C0 4.02 0 2.04 0 0 Z " fill="#333333" transform="translate(324,154)"/>
<path d="M0 0 C0.66 0 1.32 0 2 0 C2 1.98 2 3.96 2 6 C2.99 6 3.98 6 5 6 C4.67 6.66 4.34 7.32 4 8 C3.34 7.67 2.68 7.34 2 7 C2 8.98 2 10.96 2 13 C1.34 13 0.68 13 0 13 C0 8.71 0 4.42 0 0 Z " fill="#474747" transform="translate(195,228)"/>
<path d="M0 0 C2.475 0.495 2.475 0.495 5 1 C4.67 2.32 4.34 3.64 4 5 C2.68 5 1.36 5 0 5 C0 3.35 0 1.7 0 0 Z " fill="#F6F6F6" transform="translate(197,229)"/>
</svg>
